<svg version="1.2" xmlns="http://www.w3.org/2000/svg" viewBox="0 0 871 168" width="871" height="168">
	<title>logooo-svg</title>
	<style>
		.s0 { fill: #ffffff } 
		.s1 { fill: none;stroke: #ffffff;stroke-width: 17.5 } 
		.s2 { fill: #fcfcfc } 
	</style>
	<g id="Folder 1">
		<g id="Calque_12">
			<g id="Layer">
				<path id="Layer" fill-rule="evenodd" class="s0" d="m195 11.7h21.9q18.8 0 25.3 2.2 9.4 3.1 15.4 12.8 5.9 9.7 5.9 24.3 0 14.7-5.8 24.3-5.8 9.6-16 12.9-7.5 2.4-27.9 2.4h-7.8v68.5h-11c0 0 0-147.4 0-147.4zm11 14.4v50.1l18.5 0.3q11.3 0 16.5-2.8 5.2-2.8 8.2-8.9 3-6.2 3-13.8 0-7.4-3-13.5-3-6.2-7.8-8.8-4.9-2.6-16-2.6c0 0-19.4 0-19.4 0z"/>
			</g>
			<g id="Layer">
				<path id="Layer" fill-rule="evenodd" class="s0" d="m301 11.7q18.3 0 24.7 2 9.8 3 15.9 12.9 6.1 9.9 6.1 24.3 0 12.1-4.2 21.2-4.2 9.2-12 13.8-7.8 4.7-21.6 4.8l39.4 68.4h-13.5l-39.5-68.4h-6.2v68.4h-11v-147.4zm-10.9 14.4v50.2l18.9 0.2q11 0 16.3-2.9 5.3-2.8 8.2-8.9 3-6.2 3-13.8 0-7.4-3-13.5-3-6-7.9-8.7-4.8-2.6-16.1-2.6z"/>
			</g>
			<g id="Layer">
				<path id="Layer" fill-rule="evenodd" class="s0" d="m420.3 8q24.9 0 41.7 22.3 16.8 22.4 16.8 55.1 0 32.3-16.7 54.9-16.8 22.5-40.9 22.5-24.4 0-41.2-22.4-16.8-22.5-16.8-54.3 0-21.3 7.7-39.4 7.6-18.1 20.8-28.4 13.2-10.3 28.6-10.3zm0.5 14.3q-12.2 0-23.1 8.6-10.9 8.5-17 22.9-6.1 14.5-6.1 32.2 0 26.3 13.5 44.4 13.6 18.1 32.7 18.1 12.8 0 23.6-8.3 10.9-8.3 17-22.8 6.1-14.4 6.1-32.1 0-17.5-6.1-31.7-6.1-14.2-17.1-22.7-11.1-8.6-23.5-8.6z"/>
			</g>
			<g id="Layer">
				<path id="Layer" class="s0" d="m486.6 26.1v-14.4h60.1v14.4h-24.4v133h-11.2v-133z"/>
			</g>
			<g id="Layer">
				<path id="Layer" class="s0" d="m569.2 11.7h62.8v14.4h-51.9v46.2h51.5v14.5h-51.5v57.9h51.5v14.4h-62.4z"/>
			</g>
			<g id="Layer">
				<path id="Layer" class="s0" d="m766.6 39.1l-8.7 8.9q-7.1-12.5-17.2-19-10-6.5-22-6.5-13.1 0-24.3 8.5-11.2 8.5-17.4 22.8-6.1 14.2-6.1 32.1 0 26.9 13.7 45 13.8 18 34.8 18 23 0 38.5-24.2l8.7 8.8q-8.2 14-20.5 21.7-12.3 7.6-27.4 7.6-28.8 0-45.4-25.7-14-21.8-14-52.5 0-32.4 16.9-54.5 16.9-22.1 42.3-22.1 15.4 0 27.8 8.2 12.4 8.1 20.3 22.9z"/>
			</g>
			<g id="Layer">
				<path id="Layer" class="s0" d="m787.3 11.7h11v61.8h55.9v-61.8h10.9v147.4h-10.9v-71.1h-55.9v71.1h-11z"/>
			</g>
		</g>
		<g id="Layer_6">
			<g id="Layer">
				<g id="Layer">
					<g id="Layer">
						<path id="Layer" class="s0" d="m67.6 114.2l9.8-4.8 7.1 3.7c10.5-4.4 39.9 40.2 39.9 40.2l-19.4-4-10.9 19.3-2.2-20.1c2.4-12.1-13.2-31.7-13.2-31.7l-8.4 22.3c-4.2 9.1-1.2 31.4-1.2 31.4l-14.4-16.7-18.7 6.1c-1.1-7.1 29.9-42.4 29.9-42.4"/>
						<path id="Layer" class="s1" d="m53.2 114.2c-21.4 0-38.6-17.7-38.6-39.6 0-21.9 17.2-39.6 38.6-39.6 21.4 0 38.7 17.7 38.7 39.6 0 21.9-17.3 39.6-38.7 39.6z"/>
						<path id="Layer" class="s1" d="m103.7 114.2c-21.4 0-38.7-17.7-38.7-39.6 0-21.9 17.3-39.6 38.7-39.6 21.3 0 38.6 17.7 38.6 39.6 0 21.9-17.3 39.6-38.6 39.6z"/>
						<path id="Layer" class="s2" d="m32.8 36.2l-4.9-8.8-11.4 7.6 4.2-29.8 26.9 9.8-11.7 7.4 5.2 9.4z"/>
						<path id="Layer" class="s0" d="m120.4 33.9l4.9-11.2-8.1-4.1 4.3-9 7.3 4.3 4.4-8.2 8 4.5-4.5 8.4 8.8 4.1-4.5 9.1-7.8-4.2-5.2 10.5z"/>
					</g>
				</g>
			</g>
		</g>
	</g>
</svg>